<?xml version="1.0" encoding="UTF-8"?>
<svg width="37px" height="30px" viewBox="0 0 37 30" version="1.1" xmlns="http://www.w3.org/2000/svg" xmlns:xlink="http://www.w3.org/1999/xlink">
    <!-- Generator: sketchtool 61 (101010) - https://sketch.com -->
    <title>4887B11B-3448-49FF-B0F3-6AEFDB5957EF</title>
    <desc>Created with sketchtool.</desc>
    <g id="Page-1" stroke="none" stroke-width="1" fill="none" fill-rule="evenodd">
        <g id="Desktop" transform="translate(-1313.000000, -66.000000)" fill="#000000" fill-rule="nonzero">
            <g id="Cart-Icon" transform="translate(1313.000000, 66.000000)">
                <path d="M36.9195652,6.71738379 L32.6163043,20.2346729 C32.2945652,21.1973285 31.45,21.8390989 30.4445652,21.8390989 L13.8347826,21.8390989 C12.8695652,21.8390989 11.9445652,21.2374391 11.6228261,20.3550048 L5.26847826,3.38819983 L1.60869565,3.38819983 C0.723913043,3.38819983 0,2.66620813 0,1.78377383 C0,0.901339527 0.723913043,0.179347826 1.60869565,0.179347826 L6.39456522,0.179347826 C7.07826087,0.179347826 7.68152174,0.620564977 7.92282609,1.26233538 L14.4782609,18.6302469 L29.7608696,18.6302469 L33.1793478,7.80037134 L14.2369565,7.80037134 C13.3521739,7.80037134 12.6282609,7.07837964 12.6282609,6.19594534 C12.6282609,5.31351103 13.3521739,4.59151933 14.2369565,4.59151933 L35.3913043,4.59151933 C35.9141304,4.59151933 36.3967391,4.87229388 36.6782609,5.27340038 C37,5.67450689 37.0804348,6.23605599 36.9195652,6.71738379 Z M14.6391304,23.9649633 C13.9554348,23.9649633 13.2717391,24.2457379 12.7891304,24.7270657 C12.3065217,25.2083935 12.025,25.8902745 12.025,26.5721556 C12.025,27.2540366 12.3065217,27.9359177 12.7891304,28.4172455 C13.2717391,28.8985733 13.9554348,29.1793478 14.6391304,29.1793478 C15.3228261,29.1793478 16.0065217,28.8985733 16.4891304,28.4172455 C16.9717391,27.9359177 17.2532609,27.2540366 17.2532609,26.5721556 C17.2532609,25.8902745 16.9717391,25.2083935 16.4891304,24.7270657 C16.0065217,24.2457379 15.3228261,23.9649633 14.6391304,23.9649633 Z M29.0771739,23.9649633 C28.3934783,23.9649633 27.7097826,24.2457379 27.2271739,24.7270657 C26.7445652,25.2083935 26.4630435,25.8902745 26.4630435,26.5721556 C26.4630435,27.2540366 26.7445652,27.9359177 27.2271739,28.4172455 C27.7097826,28.8985733 28.3934783,29.1793478 29.0771739,29.1793478 C29.7608696,29.1793478 30.4445652,28.8985733 30.9271739,28.4172455 C31.4097826,27.9359177 31.6913043,27.2540366 31.6913043,26.5721556 C31.6913043,25.8902745 31.4097826,25.2083935 30.9271739,24.7270657 C30.4445652,24.2457379 29.7608696,23.9649633 29.0771739,23.9649633 Z" id="Shape"></path>
            </g>
        </g>
    </g>
</svg>