<?xml version="1.0" encoding="UTF-8"?>
<svg width="146px" height="146px" viewBox="0 0 146 146" version="1.1" xmlns="http://www.w3.org/2000/svg" xmlns:xlink="http://www.w3.org/1999/xlink">
    <!-- Generator: sketchtool 61 (101010) - https://sketch.com -->
    <title>C116D993-F33F-4BF3-A0A8-22563E5AAD9A</title>
    <desc>Created with sketchtool.</desc>
    <g id="Page-1" stroke="none" stroke-width="1" fill="none" fill-rule="evenodd">
        <g id="Desktop" transform="translate(-114.000000, -1604.000000)" fill="#FFFFFF" fill-rule="nonzero">
            <g id="Li-Logo" transform="translate(114.000000, 1604.000000)">
                <path d="M80.8967742,119 L80.8967742,106.422785 L53.3741935,106.422785 L53.3741935,36.7822785 L37,36.7822785 L37,119 L80.8967742,119 Z M98.8967742,44.8177215 C101.916129,44.8177215 104.354839,43.9831224 106.212903,42.3139241 C108.070968,40.6447257 109,38.5291139 109,35.9670886 C109,33.3274262 108.070968,31.1729958 106.212903,29.5037975 C104.354839,27.8345992 101.916129,27 98.8967742,27 C95.8774194,27 93.4387097,27.8345992 91.5806452,29.5037975 C89.7225806,31.1729958 88.7935484,33.3274262 88.7935484,35.9670886 C88.7935484,38.5291139 89.7225806,40.6447257 91.5806452,42.3139241 C93.4387097,43.9831224 95.8774194,44.8177215 98.8967742,44.8177215 Z M107.025806,119 L107.025806,54.4835443 L90.6516129,54.4835443 L90.6516129,119 L107.025806,119 Z" id="Li"></path>
                <path d="M146,0 L0,0 L0,146 L146,146 L146,0 Z M140.525,5.475 L140.525,140.525 L5.475,140.525 L5.475,5.475 L140.525,5.475 Z" id="Rectangle"></path>
            </g>
        </g>
    </g>
</svg>